<?xml version="1.0" standalone="no"?>
<!DOCTYPE svg PUBLIC "-//W3C//DTD SVG 20010904//EN"
 "http://www.w3.org/TR/2001/REC-SVG-20010904/DTD/svg10.dtd">
<svg version="1.0" xmlns="http://www.w3.org/2000/svg"
 width="539.000000pt" height="600.000000pt" viewBox="0 0 539.000000 600.000000"
 preserveAspectRatio="xMidYMid meet">
<metadata>
Created by potrace 1.16, written by Peter Selinger 2001-2019
</metadata>
<g transform="translate(0.000000,600.000000) scale(0.100000,-0.100000)"
fill="#000000" stroke="none">
<path d="M3722 5917 c-34 -13 -55 -35 -46 -49 3 -4 -4 -8 -16 -8 -14 0 -19 -4
-14 -12 5 -8 2 -9 -9 -5 -9 3 -16 3 -16 -1 6 -37 -20 -35 -57 5 -29 32 -46 30
-34 -3 18 -46 16 -47 -84 -41 -76 5 -96 4 -106 -8 -7 -8 -18 -15 -24 -15 -7 0
-37 -22 -67 -48 -29 -27 -82 -65 -117 -86 -60 -36 -167 -135 -157 -145 3 -2
35 25 73 61 37 36 88 75 114 87 76 34 173 24 217 -23 l22 -24 -93 3 c-129 5
-200 -10 -241 -49 -18 -17 -33 -38 -32 -46 1 -8 -2 -25 -7 -38 -5 -16 -5 -21
3 -16 8 4 9 0 4 -15 -8 -27 2 -27 24 0 14 18 21 20 39 10 11 -6 49 -11 84 -10
53 0 59 2 38 11 l-25 10 35 13 35 13 -45 1 c-25 1 -62 4 -83 7 -30 5 -35 9
-26 20 17 20 76 29 95 13 13 -10 16 -9 21 10 4 17 8 19 19 10 10 -8 18 -8 27
-1 16 13 70 13 79 -1 7 -11 39 -17 100 -20 23 -1 34 -5 30 -12 -4 -5 -5 -18
-3 -28 2 -15 -2 -17 -18 -12 -17 5 -21 2 -21 -17 0 -13 -9 -49 -20 -81 -11
-31 -20 -64 -21 -74 -1 -28 -43 -98 -59 -99 -33 -3 -34 -5 -15 -22 22 -19 29
-63 11 -74 -11 -7 -13 -12 -15 -49 -1 -12 -5 -17 -13 -13 -7 4 -8 3 -4 -5 4
-6 2 -19 -6 -28 -11 -14 -11 -16 1 -12 8 3 26 32 40 65 14 32 29 61 34 63 4 2
12 14 18 28 8 21 14 24 46 21 33 -3 38 -6 36 -26 -3 -20 0 -21 18 -12 25 14
36 6 20 -14 -21 -26 -3 -38 29 -20 15 9 35 14 45 11 15 -6 15 -9 1 -28 -8 -12
-12 -27 -9 -35 4 -11 10 -10 30 6 14 11 29 17 34 15 8 -6 7 -14 -11 -85 -6
-25 -14 -56 -17 -69 -5 -22 -93 -121 -107 -121 -4 0 -12 -5 -19 -10 -7 -6 -30
-26 -52 -45 -101 -88 -218 -112 -318 -66 -64 29 -130 95 -122 122 4 11 2 19
-6 19 -6 0 0 16 15 35 14 19 31 44 36 57 8 19 9 17 4 -11 -8 -41 9 -35 31 12
9 18 13 24 11 15 -8 -28 18 -11 37 25 10 19 19 40 21 48 3 19 17 41 39 58 16
12 17 12 11 -5 -5 -18 -5 -18 9 -2 8 10 16 15 20 12 9 -9 79 105 73 121 -10
27 -35 16 -56 -24 -14 -29 -16 -41 -7 -44 9 -4 9 -6 0 -6 -7 -1 -10 -8 -6 -18
5 -15 3 -14 -10 2 -9 11 -17 16 -17 12 0 -4 -11 4 -25 19 l-24 26 -12 -26
c-14 -29 -20 -31 -37 -14 -9 9 -12 9 -12 0 0 -7 -8 -12 -17 -12 -9 0 -25 -7
-35 -17 -16 -14 -18 -14 -18 -1 0 20 -27 31 -34 15 -2 -7 -5 -3 -6 8 -1 18 -1
19 -11 3 -5 -10 -15 -18 -22 -18 -7 0 -6 4 3 10 11 7 8 10 -15 10 -17 0 -36 5
-43 12 -9 9 -12 9 -12 -1 0 -11 -3 -11 -15 -1 -12 10 -18 10 -30 0 -13 -10
-15 -9 -15 12 0 17 8 29 27 37 24 11 25 13 11 28 -15 14 -22 9 -80 -52 -36
-39 -77 -96 -95 -134 -35 -69 -29 -65 -156 -121 -27 -12 -92 -28 -145 -36
-107 -15 -228 -38 -282 -54 -43 -12 -147 -73 -176 -103 -12 -12 -31 -28 -42
-36 -12 -8 -19 -18 -16 -23 3 -4 28 11 56 33 110 86 226 124 448 144 36 3 92
17 125 31 102 43 104 43 64 -7 -41 -50 -79 -120 -79 -145 0 -12 -5 -15 -22 -9
-13 4 -49 9 -81 12 -68 6 -92 -7 -64 -34 11 -11 17 -13 17 -5 0 19 79 14 124
-8 23 -11 52 -35 64 -54 13 -19 37 -49 53 -65 l29 -31 -38 -16 c-20 -10 -43
-16 -49 -15 -7 1 -13 -3 -13 -8 0 -6 -7 -8 -15 -5 -8 4 -15 2 -15 -4 0 -6 -9
-8 -20 -5 -16 4 -20 0 -20 -22 0 -22 -3 -25 -20 -20 -11 4 -34 -1 -52 -9 -17
-9 -37 -16 -43 -16 -7 0 -16 -7 -19 -16 -4 -10 -16 -14 -33 -12 -39 4 -131
-23 -138 -40 -13 -35 21 -82 39 -53 3 4 16 8 28 7 13 -1 29 4 36 11 7 7 22 13
33 13 10 0 19 6 19 14 0 8 9 18 20 21 11 3 20 14 21 23 0 11 3 12 6 5 7 -18
23 -16 23 2 0 9 9 15 25 15 14 0 25 5 25 10 0 6 8 10 18 10 10 0 27 6 37 14
11 8 24 12 31 9 6 -2 14 6 17 18 4 16 11 20 27 16 12 -3 23 0 26 7 3 8 16 11
34 8 17 -2 30 0 30 6 0 6 42 10 103 11 83 1 107 5 128 21 20 14 34 17 61 11
28 -7 40 -4 59 11 16 14 18 18 7 14 -10 -3 -18 -1 -18 4 0 16 155 12 206 -6
45 -15 137 -67 162 -91 7 -6 27 -17 45 -24 l33 -12 -56 -52 c-63 -60 -91 -73
-110 -50 -7 8 -19 15 -26 15 -8 0 -14 4 -14 9 0 5 -13 14 -30 21 -16 7 -30 16
-30 21 0 5 -11 9 -24 9 -21 0 -23 4 -19 40 2 23 0 40 -6 40 -6 0 -8 -7 -5 -15
5 -11 2 -13 -11 -8 -15 5 -17 2 -11 -22 6 -24 5 -27 -11 -20 -67 28 -113 35
-188 31 -105 -7 -125 -13 -125 -40 0 -18 5 -22 33 -21 17 1 56 8 85 15 43 11
62 12 105 1 28 -6 64 -14 80 -18 15 -3 27 -9 27 -14 0 -5 7 -9 15 -9 30 0 110
-64 110 -89 0 -9 9 -17 20 -19 10 -3 40 -25 66 -51 62 -63 106 -94 120 -85 7
4 9 3 5 -4 -3 -6 8 -21 24 -34 17 -13 45 -35 63 -49 79 -63 124 -90 141 -83
20 8 17 24 -9 38 -39 22 -110 71 -130 89 -11 10 -41 35 -67 54 -26 20 -45 40
-42 44 3 5 35 25 72 46 37 20 71 43 75 50 5 7 12 11 16 9 4 -3 15 6 25 20 11
13 25 24 32 24 8 0 14 5 14 12 0 6 7 20 17 30 31 35 -7 18 -45 -20 -54 -54
-145 -96 -209 -96 -32 0 -49 -4 -46 -11 4 -5 -6 2 -21 17 -26 25 -28 48 -4 48
5 0 19 11 30 25 11 14 23 23 28 20 9 -6 32 19 25 27 -3 3 5 13 17 24 13 12 18
13 13 4 -5 -8 7 -4 26 11 71 53 291 151 361 161 44 7 69 15 73 26 3 8 4 17 1
19 -7 8 -152 -16 -202 -33 -27 -9 -85 -35 -129 -59 -117 -62 -135 -63 -216
-15 -122 72 -154 83 -259 83 -57 1 -104 -4 -117 -11 -14 -8 -30 -9 -45 -3 -16
6 -34 5 -55 -4 -17 -7 -65 -19 -108 -26 -102 -16 -145 -4 -176 51 -13 22 -26
40 -29 40 -4 0 -19 9 -33 20 -24 19 -24 21 -10 62 26 76 115 204 134 193 5 -4
9 -1 9 4 0 6 4 11 8 11 9 0 -2 -103 -17 -155 -4 -16 -4 -39 0 -50 4 -11 8 -16
8 -11 2 17 31 -17 32 -38 1 -17 2 -17 6 -3 2 9 9 17 14 17 6 0 8 9 4 19 -3 11
-1 22 5 26 6 3 10 -3 10 -16 0 -18 3 -20 12 -11 6 6 13 21 15 32 2 11 15 38
29 60 26 39 44 51 44 29 0 -5 -5 -7 -11 -3 -8 5 -9 -6 -4 -37 8 -52 25 -76 25
-36 0 16 8 30 20 37 11 6 18 15 15 21 -4 5 -3 15 2 22 4 6 9 21 10 31 5 28 24
48 41 41 8 -3 21 0 29 6 7 7 16 9 20 5 3 -3 1 -6 -5 -6 -6 0 -9 -7 -6 -15 7
-17 0 -19 -26 -5 -16 8 -19 5 -25 -20 -4 -16 -11 -32 -16 -35 -5 -4 -9 -11 -9
-17 0 -6 8 -4 18 5 24 22 49 22 56 0 9 -28 67 -88 111 -116 101 -65 209 -73
305 -23 70 37 154 99 208 153 56 57 107 201 97 276 -7 56 3 55 49 0 15 -18 30
-32 34 -32 18 3 26 -2 14 -9 -9 -7 -7 -17 12 -43 53 -72 85 -145 128 -286 13
-42 13 -42 25 -18 9 20 8 28 -4 40 -8 8 -11 15 -6 15 4 0 1 5 -7 10 -12 8 -12
10 -1 10 11 0 10 4 -4 20 -9 10 -15 26 -12 33 3 8 0 20 -6 26 -10 10 -18 51
-10 51 1 0 15 -19 29 -42 30 -47 197 -218 214 -218 6 0 14 -8 17 -17 4 -10 27
-41 53 -69 44 -49 118 -179 112 -198 -1 -4 2 -14 7 -20 9 -11 19 -121 20 -233
1 -30 5 -43 15 -43 11 0 14 14 12 58 -2 32 -6 64 -10 70 -4 7 -3 12 2 12 5 0
10 23 11 50 1 28 -3 50 -8 50 -5 0 -9 19 -9 42 -1 22 -7 45 -14 49 -10 7 -10
9 0 9 6 0 12 11 12 25 0 14 -5 25 -12 25 -6 0 -8 3 -5 6 4 4 13 1 22 -6 8 -7
15 -9 15 -4 0 4 15 -6 33 -24 17 -17 52 -41 77 -52 25 -12 61 -30 80 -40 19
-11 42 -19 51 -20 9 0 30 -7 45 -15 33 -18 107 -12 158 12 l31 14 -28 -4 c-33
-5 -43 6 -22 23 19 16 19 50 1 50 -8 0 -18 -5 -21 -10 -5 -8 -11 -8 -20 0 -8
7 -15 7 -19 1 -4 -6 -17 -4 -34 5 -15 7 -45 14 -67 15 -22 0 -49 5 -60 10 -14
6 -6 7 25 2 61 -9 340 -10 340 0 0 4 9 7 19 7 10 0 21 7 25 15 10 27 36 17 36
-14 0 -17 5 -33 10 -36 6 -4 10 -3 8 2 -1 4 2 23 6 41 6 27 12 33 27 29 14 -4
19 0 19 15 0 10 5 16 10 13 6 -3 10 -1 10 4 0 6 -4 11 -10 11 -5 0 -10 6 -10
14 0 18 -24 15 -125 -18 -136 -44 -372 -33 -466 22 -272 160 -331 206 -424
336 -11 16 -26 34 -33 42 -18 19 -33 74 -21 74 5 0 27 -9 47 -19 42 -21 149
-55 172 -53 8 0 49 -6 90 -13 86 -15 171 -14 285 5 135 22 241 93 256 172 4
24 8 54 9 67 0 22 -1 22 -30 -9 -26 -28 -35 -31 -63 -26 -30 6 -164 -31 -232
-64 -85 -42 -268 -61 -392 -41 -40 6 -93 22 -119 36 -26 14 -55 25 -65 25 -20
0 -131 95 -122 103 5 6 -36 55 -89 105 -21 19 -40 42 -43 52 -3 9 -17 23 -30
30 -28 15 -35 60 -10 60 9 0 38 21 65 46 50 47 91 119 105 184 4 19 12 38 17
41 16 10 23 139 9 139 -7 0 -9 4 -6 10 8 14 -81 100 -102 99 -10 0 -33 -6 -51
-12z m-36 -618 c8 -16 21 -29 28 -29 8 0 20 -24 30 -57 8 -32 27 -70 41 -85
14 -15 25 -32 25 -38 0 -6 11 -15 24 -20 20 -7 25 -17 28 -62 2 -29 8 -62 13
-73 8 -19 8 -19 -8 -3 -9 9 -17 23 -17 30 0 21 -51 79 -63 71 -6 -4 -8 0 -4
10 4 11 -3 26 -18 41 -14 14 -25 31 -25 38 0 19 -35 69 -43 61 -4 -3 -7 0 -7
7 0 7 -6 21 -14 29 -18 22 -31 75 -15 65 8 -4 9 -3 5 4 -4 7 -14 12 -22 12 -8
0 -14 9 -14 19 0 29 37 15 56 -20z"/>
<path d="M2915 5386 c-43 -17 -82 -57 -88 -93 -6 -33 -5 -34 33 -37 8 -1 14
-10 13 -19 -1 -13 4 -17 14 -13 12 5 14 1 11 -19 -5 -25 5 -34 17 -15 4 6 21
9 40 7 42 -5 66 21 73 80 5 49 -16 83 -52 83 -19 1 -19 2 -3 11 44 26 0 38
-58 15z"/>
<path d="M3497 3422 c-16 -49 -33 -140 -41 -227 -9 -102 -38 -243 -68 -335
-16 -52 -31 -106 -32 -120 -1 -27 -69 -120 -136 -187 -23 -24 -44 -43 -46 -43
-3 0 -100 -70 -134 -97 -2 -2 1 -8 8 -12 8 -5 1 -8 -18 -8 -17 0 -36 -6 -43
-15 -6 -8 -32 -23 -57 -33 -53 -22 -80 -43 -80 -62 0 -15 16 -18 25 -3 3 5 38
26 78 46 88 44 167 94 167 106 0 5 4 7 9 3 6 -3 23 8 40 24 16 16 44 37 60 47
17 10 31 21 31 25 0 9 38 51 43 47 3 -2 24 24 46 56 l40 60 58 -3 c81 -2 270
37 284 60 15 25 -3 30 -38 9 -38 -22 -58 -19 -45 8 5 9 6 26 2 37 -4 11 -11
30 -15 43 -7 22 -11 23 -66 17 -32 -4 -76 -4 -99 0 -33 6 -40 11 -40 30 0 13
4 26 9 30 5 3 10 18 10 33 1 15 3 38 5 52 2 14 5 28 5 33 1 4 7 7 14 7 10 0
12 16 9 65 -3 42 -1 65 6 65 7 0 10 -19 7 -52 -4 -51 -4 -51 5 -13 13 59 12
75 -6 75 -11 0 -14 5 -10 16 3 9 7 30 7 47 1 21 3 25 6 12 9 -36 23 -41 23 -8
0 17 -5 33 -12 35 -16 6 -12 66 7 112 17 40 19 66 6 66 -5 0 -16 -21 -24 -48z
m130 -600 c9 -6 10 -17 4 -38 -4 -16 -6 -35 -4 -41 3 -7 0 -13 -6 -13 -6 0
-11 8 -11 17 0 9 -3 14 -6 10 -4 -3 -13 1 -22 9 -14 14 -16 13 -26 -17 -12
-37 -29 -42 -83 -26 -55 16 -61 23 -54 60 6 31 9 32 58 35 37 2 56 -2 67 -14
19 -18 46 -12 46 11 0 16 17 20 37 7z"/>
<path d="M3947 3063 c-3 -10 -5 -53 -6 -95 -2 -74 -1 -77 19 -73 16 3 20 0 16
-11 -3 -9 -6 -18 -6 -20 0 -2 -7 -4 -16 -4 -8 0 -12 5 -9 10 3 6 1 10 -4 10
-6 0 -11 -8 -11 -18 0 -13 -21 -25 -85 -46 -77 -26 -97 -41 -79 -59 10 -9 34
4 27 16 -4 6 -1 7 7 2 7 -4 15 -4 19 1 11 16 81 44 81 33 0 -6 6 -9 13 -6 6 2
11 10 10 16 -6 23 15 10 21 -14 4 -14 11 -25 17 -25 6 0 7 5 4 10 -12 20 5 46
31 48 57 5 68 37 29 84 -14 16 -22 35 -19 40 5 7 2 8 -6 3 -8 -5 -11 -3 -8 6
3 8 14 15 26 17 23 4 31 22 10 22 -7 0 -5 5 5 11 30 17 19 27 -25 22 -38 -6
-41 -5 -36 15 4 15 2 22 -7 22 -8 0 -16 -8 -18 -17z"/>
<path d="M4310 2590 c-55 -61 -56 -65 -28 -67 13 0 17 1 10 4 -10 4 -10 8 -1
19 9 11 13 11 25 -1 12 -12 13 -29 3 -107 -6 -51 -8 -115 -4 -143 4 -27 9 -71
11 -97 3 -26 11 -69 19 -95 8 -26 15 -61 15 -76 0 -33 -28 -125 -41 -133 -5
-3 -9 -12 -9 -20 0 -28 -66 -154 -115 -219 -17 -22 -44 -60 -60 -85 -17 -25
-51 -71 -77 -103 -27 -32 -48 -63 -48 -68 0 -6 -4 -8 -8 -5 -5 3 -16 -8 -25
-23 -32 -55 -109 -122 -123 -108 -5 5 -12 146 -15 315 l-3 133 -28 20 c-15 11
-28 27 -28 35 0 21 18 17 25 -6 4 -11 11 -17 17 -14 6 4 5 10 -3 15 -9 5 -10
9 -3 9 17 0 27 51 13 64 -9 8 -10 8 -5 -2 9 -15 -2 -52 -16 -52 -6 0 -8 11 -3
27 5 22 4 25 -8 15 -8 -7 -18 -8 -22 -4 -5 4 -6 0 -2 -9 3 -9 -1 -29 -9 -44
-12 -24 -12 -26 1 -21 12 4 15 0 11 -22 -2 -15 -5 -27 -6 -27 -8 0 -4 -45 4
-45 6 0 3 -5 -7 -11 -10 -6 -21 -8 -24 -5 -4 3 -2 6 4 6 5 0 9 9 8 20 -2 23
-15 40 -15 19 0 -8 -3 -25 -7 -38 -6 -22 -4 -23 20 -17 25 6 26 5 32 -62 3
-37 10 -86 16 -110 5 -24 7 -47 4 -53 -4 -5 -1 -9 4 -9 15 0 14 -67 -1 -73
-10 -4 -9 -8 2 -16 8 -6 10 -11 5 -11 -7 0 -9 -15 -7 -35 3 -22 8 -33 16 -28
6 3 6 1 -1 -8 -18 -18 -16 -49 2 -49 8 0 15 7 15 15 0 8 7 15 15 15 49 0 358
385 381 475 4 15 13 29 21 32 7 3 22 22 32 42 10 20 37 71 59 114 37 68 42 86
42 140 -1 34 -5 82 -11 107 -5 25 -12 57 -14 71 -2 14 -8 37 -12 50 -8 22 0
280 10 342 4 27 4 27 -19 12 -35 -23 -40 -18 -10 10 15 14 23 25 19 25 -4 0
-1 5 7 10 8 5 10 10 5 10 -6 0 -31 -23 -55 -50z"/>
<path d="M3930 2337 c0 -8 -10 -19 -22 -23 -45 -14 -64 -64 -35 -93 10 -10 9
-11 -4 -6 -20 8 -24 2 -33 -49 -6 -33 -5 -38 8 -33 21 8 20 -7 -1 -29 -10 -9
-18 -24 -19 -32 -2 -8 -7 -19 -13 -25 -15 -15 -14 -77 2 -77 7 -1 4 -6 -6 -15
-11 -8 -17 -21 -14 -32 4 -16 6 -15 12 5 4 12 11 22 16 22 12 0 11 -7 -1 -31
-7 -13 -7 -19 0 -19 5 0 10 4 10 10 0 5 6 7 14 4 8 -3 17 -1 21 5 4 7 0 8 -10
4 -13 -4 -16 -1 -13 18 2 13 9 23 16 21 8 -1 11 7 7 25 -6 33 3 66 16 58 5 -3
6 1 3 9 -3 9 -2 16 3 16 5 0 9 9 9 21 0 18 -2 18 -12 5 -18 -25 -23 -19 -13
16 12 44 12 48 -6 42 -19 -8 -19 7 1 32 8 10 13 13 9 7 -4 -8 1 -13 13 -13 23
0 50 59 32 70 -11 7 -9 45 4 57 4 5 6 4 5 -2 -5 -19 13 -95 21 -90 5 3 11 -1
14 -7 9 -21 -2 65 -12 92 -5 14 -10 29 -10 33 -1 16 -12 20 -12 4z"/>
<path d="M1760 2076 c0 -8 -7 -16 -15 -20 -8 -3 -15 -12 -15 -20 0 -10 -6 -13
-15 -10 -10 4 -15 0 -15 -11 0 -19 -89 -115 -107 -115 -7 0 -17 -10 -24 -21
-6 -12 -51 -40 -105 -65 -89 -42 -94 -46 -94 -75 0 -27 2 -30 15 -19 11 9 19
10 26 3 7 -7 19 -2 38 16 38 35 73 61 84 61 5 0 4 6 -2 14 -10 12 -8 13 8 9
24 -6 75 23 66 37 -3 5 3 15 15 22 11 7 20 18 20 25 0 7 7 13 15 13 8 0 15 4
15 8 0 5 25 34 55 65 50 50 71 97 45 97 -5 0 -10 -6 -10 -14z"/>
<path d="M3825 1053 c1 -54 3 -98 4 -98 1 0 4 -20 6 -45 6 -85 11 -115 19
-129 5 -7 8 -39 7 -71 -1 -41 4 -63 15 -74 8 -9 11 -16 5 -16 -14 0 -14 -60 0
-97 36 -94 7 -183 -72 -227 -39 -22 -59 -26 -127 -26 -45 0 -83 -4 -87 -9 -6
-11 22 -29 64 -42 l26 -7 -26 -1 c-18 -1 -28 -8 -32 -21 -3 -13 -14 -20 -29
-20 -12 0 -30 -5 -38 -10 -21 -14 126 -13 209 1 36 6 83 20 104 31 49 25 163
108 159 117 -1 3 6 7 18 9 16 3 20 11 20 41 0 20 -4 41 -9 47 -6 5 -11 32 -13
59 l-3 50 -48 0 c-45 0 -50 3 -61 30 -18 43 -25 84 -46 265 -29 249 -43 340
-55 340 -9 0 -12 -27 -10 -97z"/>
<path d="M1785 453 c-81 -22 -87 -93 -8 -93 25 0 44 -10 77 -40 24 -22 48 -40
53 -40 5 0 18 -9 28 -20 10 -11 15 -20 12 -20 -11 0 -81 44 -99 62 -19 19 -58
25 -58 9 0 -13 76 -91 89 -91 6 0 10 -4 8 -10 -1 -5 27 -32 62 -60 61 -47 68
-50 123 -50 58 0 58 0 44 23 -8 12 -31 31 -51 41 -48 26 -44 35 13 24 64 -11
157 2 157 22 0 8 6 19 13 23 24 16 2 24 -77 31 -57 5 -87 13 -106 27 -14 12
-23 24 -20 29 3 4 -2 10 -10 14 -8 3 -15 0 -16 -7 0 -7 -5 3 -10 21 -5 17 -16
32 -23 32 -8 0 -16 7 -19 15 -13 32 -133 71 -182 58z"/>
<path d="M3472 345 c-7 -16 -27 -37 -44 -45 -42 -20 -46 -38 -11 -46 56 -12
64 -16 60 -27 -5 -15 -47 -22 -47 -8 0 6 -9 11 -20 11 -10 0 -24 8 -30 18 -11
16 -11 16 -6 0 3 -10 9 -25 12 -33 4 -11 2 -13 -9 -9 -12 4 -14 1 -10 -14 2
-11 0 -23 -6 -27 -6 -3 -11 -3 -10 2 4 23 -3 33 -25 33 -39 0 -56 -11 -56 -35
0 -28 19 -30 94 -9 39 11 57 11 89 2 34 -10 41 -10 52 5 7 9 17 17 23 17 23 0
20 28 -4 34 -32 8 -31 26 2 26 15 0 23 4 19 11 -4 5 0 18 9 28 14 16 14 18 -4
34 -11 9 -29 17 -39 17 -13 0 -21 8 -23 23 -3 20 -4 20 -16 -8z"/>
<path d="M4030 265 c0 -8 4 -15 10 -15 5 0 2 -20 -7 -45 -12 -29 -26 -48 -43
-54 -42 -17 -312 -60 -358 -57 -23 2 -45 -1 -48 -5 -3 -5 3 -9 13 -10 10 0 40
-3 67 -6 50 -5 286 28 360 50 76 22 90 65 42 130 -22 30 -36 35 -36 12z"/>
</g>
</svg>
